<svg width="40" height="40" fill="none" xmlns="http://www.w3.org/2000/svg"><g clip-path="url(#clip0_277_81)"><path d="M20 40c11.046 0 20-8.954 20-20S31.046 0 20 0 0 8.954 0 20s8.954 20 20 20z" fill="#4176FA"/><path d="M27.17 16.521c-5.777 0-5.784 5.755-5.784 5.785 0 0-.396 5.762 5.784 5.762 0 0 5.154.293 5.154-4.01h-2.646s.087 1.62-2.42 1.62c0 0-2.646.176-2.646-2.617h7.8s.858-6.54-5.242-6.54zm-2.588 4.524s.323-2.317 2.647-2.317c2.331 0 2.294 2.317 2.294 2.317h-4.94zm-6.612-1.481s2.295-.169 2.295-2.866c0-2.69-1.877-4.01-4.26-4.01H8.168v15.065h7.837s4.787.146 4.787-4.45c0 0 .206-3.739-2.822-3.739zm-6.349-4.2h4.384s1.063 0 1.063 1.568c0 1.569-.623 1.796-1.334 1.796H11.62v-3.365zm4.164 9.713h-4.164v-4.032h4.384s1.591-.015 1.584 2.074c0 1.76-1.18 1.943-1.804 1.958zm8.145-11.503v1.856h6.217v-1.855H23.93z" fill="#2D2D2D"/></g><defs><clipPath id="clip0_277_81"><path fill="#fff" d="M0 0h40v40H0z"/></clipPath></defs></svg>