<svg width="40" height="40" fill="none" xmlns="http://www.w3.org/2000/svg"><g clip-path="url(#clip0_277_74)"><path d="M20 40c11.046 0 20-8.955 20-20C40 8.954 31.046 0 20 0S0 8.954 0 20c0 11.045 8.954 20 20 20z" fill="#007AB9"/><path d="M31.95 21.609v8.245h-4.78v-7.692c0-1.932-.69-3.251-2.422-3.251-1.32 0-2.105.888-2.452 1.748-.126.307-.158.734-.158 1.165v8.03h-4.781s.064-13.03 0-14.378h4.781v2.038c-.01.016-.023.031-.032.047h.032v-.047c.635-.978 1.768-2.375 4.309-2.375 3.145 0 5.503 2.055 5.503 6.47zM12.356 8.545c-1.636 0-2.706 1.074-2.706 2.484 0 1.38 1.04 2.485 2.643 2.485h.03c1.668 0 2.705-1.104 2.705-2.485-.032-1.41-1.037-2.484-2.672-2.484zm-2.421 21.31h4.779V15.476h-4.78v14.379z" fill="#2D2D2D"/></g><defs><clipPath id="clip0_277_74"><path fill="#fff" d="M0 0h40v40H0z"/></clipPath></defs></svg>