<svg width="40" height="40" fill="none" xmlns="http://www.w3.org/2000/svg"><g clip-path="url(#clip0_331_154)"><path d="M20 40c11.046 0 20-8.955 20-20C40 8.954 31.046 0 20 0S0 8.954 0 20c0 11.045 8.954 20 20 20z" fill="#0090DA"/><g clip-path="url(#clip1_331_154)"><path d="M15.632 22.916l-.364 5.119c.521 0 .747-.224 1.017-.493l2.441-2.333 5.058 3.705c.928.517 1.582.244 1.832-.854l3.32-15.557v-.001c.295-1.372-.495-1.908-1.399-1.572L8.021 18.402c-1.332.517-1.311 1.26-.226 1.596l4.99 1.552 11.589-7.252c.545-.36 1.041-.161.633.2l-9.375 8.418z" fill="#2D2D2D"/></g></g><defs><clipPath id="clip0_331_154"><path fill="#fff" d="M0 0h40v40H0z"/></clipPath><clipPath id="clip1_331_154"><path fill="#fff" transform="translate(7 9)" d="M0 0h22v22H0z"/></clipPath></defs></svg>