<svg width="35" height="35" viewBox="0 0 35 35" fill="none" xmlns="http://www.w3.org/2000/svg">
<path d="M22.9686 13.6281L19.0421 17.5L22.9686 21.3719C23.0779 21.4742 23.165 21.5978 23.2246 21.7352C23.2841 21.8725 23.3149 22.0206 23.3149 22.1703C23.3149 22.32 23.2841 22.4681 23.2246 22.6055C23.165 22.7428 23.0779 22.8664 22.9686 22.9688C22.8664 23.0701 22.7452 23.1503 22.612 23.2048C22.4787 23.2592 22.336 23.2868 22.1921 23.2859C21.9051 23.2847 21.6302 23.1708 21.4264 22.9688L17.4999 19.0422L13.628 22.9688C13.4243 23.1708 13.1493 23.2847 12.8624 23.2859C12.7184 23.2868 12.5757 23.2592 12.4425 23.2048C12.3092 23.1503 12.188 23.0701 12.0858 22.9688C11.8821 22.7638 11.7678 22.4866 11.7678 22.1977C11.7678 21.9087 11.8821 21.6315 12.0858 21.4266L15.9577 17.5L12.0858 13.6281C11.9066 13.4189 11.813 13.1498 11.8236 12.8745C11.8343 12.5992 11.9484 12.3381 12.1432 12.1433C12.338 11.9485 12.5991 11.8344 12.8743 11.8238C13.1496 11.8131 13.4188 11.9068 13.628 12.0859L17.4999 15.9578L21.3717 12.0859C21.473 11.9811 21.5939 11.8972 21.7276 11.8391C21.8613 11.781 22.0051 11.7498 22.1508 11.7472C22.2966 11.7447 22.4414 11.7709 22.577 11.8243C22.7127 11.8777 22.8364 11.9573 22.9413 12.0586C23.0461 12.1599 23.13 12.2808 23.1881 12.4145C23.2462 12.5481 23.2775 12.692 23.28 12.8377C23.2825 12.9834 23.2564 13.1283 23.2029 13.2639C23.1495 13.3995 23.0699 13.5233 22.9686 13.6281ZM28.328 28.3281C26.1864 30.4695 23.458 31.9277 20.4877 32.5184C17.5174 33.1091 14.4387 32.8058 11.6408 31.6468C8.84287 30.4877 6.45148 28.5251 4.76899 26.007C3.0865 23.4889 2.18848 20.5285 2.18848 17.5C2.18848 14.4715 3.0865 11.5111 4.76899 8.993C6.45148 6.47491 8.84287 4.51226 11.6408 3.35325C14.4387 2.19424 17.5174 1.89091 20.4877 2.48162C23.458 3.07233 26.1864 4.53055 28.328 6.67188C29.7501 8.0938 30.8781 9.78191 31.6477 11.6398C32.4174 13.4977 32.8135 15.489 32.8135 17.5C32.8135 19.511 32.4174 21.5023 31.6477 23.3602C30.8781 25.2181 29.7501 26.9062 28.328 28.3281ZM26.7858 8.21407C24.9484 6.38306 22.6097 5.13755 20.065 4.63481C17.5202 4.13207 14.8835 4.39465 12.4879 5.38939C10.0923 6.38413 8.04514 8.06642 6.60496 10.2238C5.16478 12.3812 4.39616 14.917 4.39616 17.5109C4.39616 20.1049 5.16478 22.6407 6.60496 24.7981C8.04514 26.9555 10.0923 28.6378 12.4879 29.6325C14.8835 30.6272 17.5202 30.8898 20.065 30.3871C22.6097 29.8843 24.9484 28.6388 26.7858 26.8078C28.0094 25.5885 28.9803 24.1396 29.6427 22.5442C30.3052 20.9488 30.6462 19.2384 30.6462 17.5109C30.6462 15.7835 30.3052 14.0731 29.6427 12.4777C28.9803 10.8823 28.0094 9.43343 26.7858 8.21407Z" fill="white"/>
</svg>
