<svg width="35" height="35" viewBox="0 0 35 35" fill="none" xmlns="http://www.w3.org/2000/svg">
<path fill-rule="evenodd" clip-rule="evenodd" d="M17.5 1.09375C8.44484 1.09375 1.09375 8.44484 1.09375 17.5C1.09375 26.5552 8.44484 33.9062 17.5 33.9062C26.5552 33.9062 33.9062 26.5552 33.9062 17.5C33.9062 8.44484 26.5552 1.09375 17.5 1.09375ZM17.5 3.28125C25.3477 3.28125 31.7188 9.65234 31.7188 17.5C31.7188 25.3477 25.3477 31.7188 17.5 31.7188C9.65234 31.7188 3.28125 25.3477 3.28125 17.5C3.28125 9.65234 9.65234 3.28125 17.5 3.28125ZM12.0312 25.1562H22.9688C23.5725 25.1562 24.0625 24.6662 24.0625 24.0625C24.0625 23.4588 23.5725 22.9688 22.9688 22.9688H12.0312C11.4275 22.9688 10.9375 23.4588 10.9375 24.0625C10.9375 24.6662 11.4275 25.1562 12.0312 25.1562ZM12.0312 18.5938H22.9688C23.5725 18.5938 24.0625 18.1037 24.0625 17.5C24.0625 16.8963 23.5725 16.4062 22.9688 16.4062H12.0312C11.4275 16.4062 10.9375 16.8963 10.9375 17.5C10.9375 18.1037 11.4275 18.5938 12.0312 18.5938ZM12.0312 12.0312H22.9688C23.5725 12.0312 24.0625 11.5412 24.0625 10.9375C24.0625 10.3338 23.5725 9.84375 22.9688 9.84375H12.0312C11.4275 9.84375 10.9375 10.3338 10.9375 10.9375C10.9375 11.5412 11.4275 12.0312 12.0312 12.0312Z" fill="white"/>
</svg>
