<svg width="40" height="40" viewBox="0 0 40 40" fill="none" xmlns="http://www.w3.org/2000/svg">
<rect x="1" y="1" width="38" height="38" rx="6.83333" stroke="#DD2A1A" stroke-width="2"/>
<path d="M31.6078 8.14846C32.15 8.29634 32.5444 8.73999 32.5444 9.28223C32.5444 21.9509 22.2911 32.1548 9.67176 32.1548C9.08023 32.1548 8.63658 31.8098 8.48869 31.2675L7.30563 26.1409C7.20704 25.5987 7.45351 25.0072 7.99575 24.7607L13.5167 22.3945C14.0097 22.1974 14.5519 22.3453 14.897 22.7396L17.3617 25.7466C21.2067 23.9227 24.3122 20.7678 26.0868 17.0215L23.0798 14.5567C22.6855 14.2117 22.5376 13.6694 22.7348 13.1765L25.1009 7.65551C25.3474 7.11327 25.9389 6.81751 26.4812 6.96539L31.6078 8.14846Z" fill="#DD2A1A"/>
</svg>
