<svg width="16" height="21" viewBox="0 0 16 21" fill="none" xmlns="http://www.w3.org/2000/svg">
<path d="M6.72938 20.1127C1.01723 11.8966 0 11.0359 0 7.98418C0 3.837 3.32557 0.472314 7.51187 0.472314C11.659 0.472314 15.0237 3.837 15.0237 7.98418C15.0237 11.0359 13.9674 11.8966 8.25523 20.1127C7.90311 20.6605 7.0815 20.6605 6.72938 20.1127ZM7.51187 11.1141C9.23333 11.1141 10.6418 9.74477 10.6418 7.98418C10.6418 6.26271 9.23333 4.85424 7.51187 4.85424C5.75127 4.85424 4.38192 6.26271 4.38192 7.98418C4.38192 9.74477 5.75127 11.1141 7.51187 11.1141Z" fill="#DD2A1A"/>
</svg>
