<svg width="21" height="23" viewBox="0 0 21 23" fill="none" xmlns="http://www.w3.org/2000/svg">
<path d="M20.1246 9.44506C20.2811 9.32768 20.5158 9.44506 20.5158 9.64068V17.622C20.5158 18.6784 19.6551 19.5 18.6379 19.5H2.36215C1.30579 19.5 0.484179 18.6784 0.484179 17.622V9.64068C0.484179 9.44506 0.679801 9.32768 0.836298 9.44506C1.73616 10.1493 2.87076 11.01 6.86144 13.9052C7.68305 14.4921 9.09153 15.7832 10.5 15.7832C11.8694 15.7832 13.3169 14.4921 14.0994 13.9052C18.0901 11.01 19.2247 10.1493 20.1246 9.44506ZM10.5 14.4921C9.56102 14.5312 8.26991 13.3575 7.6048 12.888C2.40127 9.13206 2.01003 8.77994 0.836298 7.84096C0.601552 7.68446 0.484179 7.41059 0.484179 7.0976V6.35424C0.484179 5.337 1.30579 4.47627 2.36215 4.47627H18.6379C19.6551 4.47627 20.5158 5.337 20.5158 6.35424V7.0976C20.5158 7.41059 20.3593 7.68446 20.1246 7.84096C18.9508 8.77994 18.5596 9.13206 13.3561 12.888C12.691 13.3575 11.3999 14.5312 10.5 14.4921Z" fill="#DD2A1A"/>
</svg>
