<svg width="22" height="23" viewBox="0 0 22 23" fill="none" xmlns="http://www.w3.org/2000/svg">
<path d="M20.2883 2.45042C20.7186 2.56779 21.0316 2.91991 21.0316 3.35028C21.0316 13.4052 12.8938 21.504 2.87797 21.504C2.40847 21.504 2.05636 21.2301 1.93898 20.7997L1 16.7308C0.921751 16.3004 1.11737 15.8309 1.54774 15.6353L5.92966 13.7573C6.3209 13.6008 6.75127 13.7182 7.02514 14.0312L8.98136 16.4178C12.0331 14.9702 14.4979 12.4662 15.9064 9.4928L13.5198 7.53658C13.2068 7.26271 13.0894 6.83234 13.2459 6.4411L15.1239 2.05918C15.3195 1.62881 15.789 1.39407 16.2194 1.51144L20.2883 2.45042Z" fill="#DD2A1A"/>
</svg>
