<svg width="35" height="35" viewBox="0 0 35 35" fill="none" xmlns="http://www.w3.org/2000/svg">
<g clip-path="url(#clip0_350_8080)">
<mask id="mask0_350_8080" style="mask-type:luminance" maskUnits="userSpaceOnUse" x="0" y="0" width="35" height="35">
<path d="M34.2695 0.16748H0.269531V34.1675H34.2695V0.16748Z" fill="white"/>
<path d="M16.5181 31.5117H8.50391C7.77164 31.5117 7.17578 30.9159 7.17578 30.1836V6.8086C7.17578 6.07627 7.77164 5.48047 8.50391 5.48047H16.0078V4.15235C16.0078 3.42002 16.6037 2.82422 17.3359 2.82422C18.0683 2.82422 18.6641 3.42002 18.6641 4.15235V5.48047H26.1016C26.8339 5.48047 27.4297 6.07627 27.4297 6.8086V21.5632L30.0859 18.6057V6.8086C30.0859 4.61161 28.2985 2.82422 26.1016 2.82422H21.0927C20.5446 1.27822 19.0675 0.167973 17.3359 0.167973C15.6044 0.167973 14.1273 1.27822 13.5792 2.82422H8.50391C6.30692 2.82422 4.51953 4.61161 4.51953 6.8086V30.1836C4.51953 32.3806 6.30692 34.168 8.50391 34.168H19.3087L16.5181 31.5117Z" fill="white"/>
</mask>
<g mask="url(#mask0_350_8080)">
<mask id="mask1_350_8080" style="mask-type:luminance" maskUnits="userSpaceOnUse" x="0" y="0" width="35" height="35">
<path d="M0.265625 0.167973H34.2656V34.168H0.265625V0.167973Z" fill="white"/>
</mask>
<g mask="url(#mask1_350_8080)">
<path d="M16.5142 31.5117H8.5C7.76774 31.5117 7.17187 30.9159 7.17187 30.1836V6.8086C7.17187 6.07627 7.76774 5.48047 8.5 5.48047H16.0039V4.15235C16.0039 3.42002 16.5998 2.82422 17.332 2.82422C18.0644 2.82422 18.6602 3.42002 18.6602 4.15235V5.48047H26.0977C26.83 5.48047 27.4258 6.07627 27.4258 6.8086V21.5632L30.082 18.6057V6.8086C30.082 4.61161 28.2946 2.82422 26.0977 2.82422H21.0888C20.5407 1.27822 19.0636 0.167973 17.332 0.167973C15.6005 0.167973 14.1234 1.27822 13.5753 2.82422H8.5C6.30302 2.82422 4.51562 4.61161 4.51562 6.8086V30.1836C4.51562 32.3806 6.30302 34.168 8.5 34.168H19.3048L16.5142 31.5117Z" fill="#1A1A1A"/>
<path d="M22.6445 4.15234V9.39844H12.0195V4.15234" stroke="#1A1A1A" stroke-width="2" stroke-miterlimit="10"/>
<path d="M15.1406 14.7109H24.7695" stroke="#1A1A1A" stroke-width="2" stroke-miterlimit="10"/>
<path d="M9.82812 14.7109H12.4844" stroke="#1A1A1A" stroke-width="2" stroke-miterlimit="10"/>
<path d="M15.2109 20.0234H24.7734" stroke="#1A1A1A" stroke-width="2" stroke-miterlimit="10"/>
<path d="M9.82812 20.0234H12.5508" stroke="#1A1A1A" stroke-width="2" stroke-miterlimit="10"/>
<path d="M9.82812 25.3359H12.4844" stroke="#1A1A1A" stroke-width="2" stroke-miterlimit="10"/>
<path d="M16.9336 26.4105L23.1303 32.3091L33.2695 21.02" stroke="#1A1A1A" stroke-width="2" stroke-miterlimit="10"/>
</g>
</g>
</g>
<defs>
<clipPath id="clip0_350_8080">
<rect width="34" height="34" fill="white" transform="translate(0.273438 0.167969)"/>
</clipPath>
</defs>
</svg>
