<svg width="35" height="35" viewBox="0 0 35 35" fill="none" xmlns="http://www.w3.org/2000/svg">
<g clip-path="url(#clip0_350_8059)">
<path d="M15.8945 1.49609H17.2227C25.878 1.49609 32.8945 8.51264 32.8945 17.168C32.8945 25.8233 25.878 32.8398 17.2227 32.8398C8.56733 32.8398 1.55078 25.8233 1.55078 17.168V15.8398M3.25198 9.94357L2.2355 12.3976M5.20186 7.02541L7.0801 5.14718M9.99825 3.19729L12.4523 2.18081M17.2227 10.793V6.80859M17.2227 10.793C13.7019 10.793 10.8477 13.6472 10.8477 17.168M17.2227 10.793C20.7434 10.793 23.5977 13.6472 23.5977 17.168M12.7149 12.6602L9.89752 9.84283M10.8477 17.168H6.86328M10.8477 17.168C10.8477 20.6888 13.7019 23.543 17.2227 23.543M12.7149 21.6758L9.89752 24.4931M17.2227 23.543V27.5273M17.2227 23.543C20.7434 23.543 23.5977 20.6888 23.5977 17.168M21.7304 21.6758L24.5478 24.4931M23.5977 17.168H27.582M21.7304 12.6602L24.5478 9.84283M15.8945 17.168H18.5508" stroke="#1A1A1A" stroke-width="2" stroke-miterlimit="10"/>
</g>
<defs>
<clipPath id="clip0_350_8059">
<rect width="34" height="34" fill="white" transform="translate(0.226562 0.167969)"/>
</clipPath>
</defs>
</svg>
