<svg width="35" height="35" viewBox="0 0 35 35" fill="none" xmlns="http://www.w3.org/2000/svg">
<path d="M29.4197 32.043H20.8538C19.4077 32.043 18.2305 30.8657 18.2305 29.4197V18.7288C18.2305 17.2827 19.4077 16.1055 20.8538 16.1055H29.4197C30.8657 16.1055 32.043 17.2827 32.043 18.7288V29.4197C32.043 30.8657 30.8657 32.043 29.4197 32.043ZM20.8538 18.2305C20.5786 18.2305 20.3555 18.4536 20.3555 18.7288V29.4197C20.3555 29.6948 20.5786 29.918 20.8538 29.918H29.4197C29.6948 29.918 29.918 29.6948 29.918 29.4197V18.7288C29.918 18.4536 29.6948 18.2305 29.4197 18.2305H20.8538Z" fill="#1A1A1A"/>
<path d="M29.4197 13.9805H20.8538C19.4077 13.9805 18.2305 12.8032 18.2305 11.3572V4.91628C18.2305 3.47022 19.4077 2.29297 20.8538 2.29297H29.4197C30.8657 2.29297 32.043 3.47022 32.043 4.91628V11.3572C32.043 12.8032 30.8657 13.9805 29.4197 13.9805ZM20.8538 4.41797C20.5786 4.41797 20.3555 4.64109 20.3555 4.91628V11.3572C20.3555 11.6323 20.5786 11.8555 20.8538 11.8555H29.4197C29.6948 11.8555 29.918 11.6323 29.918 11.3572V4.91628C29.918 4.64109 29.6948 4.41797 29.4197 4.41797H20.8538Z" fill="#1A1A1A"/>
<path d="M13.4861 18.2305H4.92019C3.47412 18.2305 2.29688 17.0532 2.29688 15.6072V4.91628C2.29688 3.47022 3.47412 2.29297 4.92019 2.29297H13.4861C14.9321 2.29297 16.1094 3.47022 16.1094 4.91628V15.6072C16.1094 17.0532 14.9321 18.2305 13.4861 18.2305ZM4.92019 4.41797C4.645 4.41797 4.42187 4.64109 4.42187 4.91628V15.6072C4.42187 15.8823 4.645 16.1055 4.92019 16.1055H13.4861C13.7612 16.1055 13.9844 15.8823 13.9844 15.6072V4.91628C13.9844 4.64109 13.7612 4.41797 13.4861 4.41797H4.92019Z" fill="#1A1A1A"/>
<path d="M13.4861 32.043H4.92019C3.47412 32.043 2.29688 30.8657 2.29688 29.4197V22.9788C2.29688 21.5327 3.47412 20.3555 4.92019 20.3555H13.4861C14.9321 20.3555 16.1094 21.5327 16.1094 22.9788V29.4197C16.1094 30.8657 14.9321 32.043 13.4861 32.043ZM4.92019 22.4805C4.645 22.4805 4.42187 22.7036 4.42187 22.9788V29.4197C4.42187 29.6948 4.645 29.918 4.92019 29.918H13.4861C13.7612 29.918 13.9844 29.6948 13.9844 29.4197V22.9788C13.9844 22.7036 13.7612 22.4805 13.4861 22.4805H4.92019Z" fill="#1A1A1A"/>
</svg>
