<svg width="11" height="15" viewBox="0 0 11 15" fill="none" xmlns="http://www.w3.org/2000/svg">
<path d="M4.85078 14.4766C0.858594 8.73438 0.147656 8.13281 0.147656 6C0.147656 3.10156 2.47188 0.75 5.39766 0.75C8.29609 0.75 10.6477 3.10156 10.6477 6C10.6477 8.13281 9.90938 8.73438 5.91719 14.4766C5.67109 14.8594 5.09688 14.8594 4.85078 14.4766ZM5.39766 8.1875C6.60078 8.1875 7.58516 7.23047 7.58516 6C7.58516 4.79688 6.60078 3.8125 5.39766 3.8125C4.16719 3.8125 3.21016 4.79688 3.21016 6C3.21016 7.23047 4.16719 8.1875 5.39766 8.1875Z" fill="white"/>
</svg>
