<svg width="14" height="14" viewBox="0 0 14 14" fill="none" xmlns="http://www.w3.org/2000/svg">
<path d="M13.7266 4.97266C13.8359 4.89062 14 4.97266 14 5.10938V10.6875C14 11.4258 13.3984 12 12.6875 12H1.3125C0.574219 12 0 11.4258 0 10.6875V5.10938C0 4.97266 0.136719 4.89062 0.246094 4.97266C0.875 5.46484 1.66797 6.06641 4.45703 8.08984C5.03125 8.5 6.01562 9.40234 7 9.40234C7.95703 9.40234 8.96875 8.5 9.51562 8.08984C12.3047 6.06641 13.0977 5.46484 13.7266 4.97266ZM7 8.5C6.34375 8.52734 5.44141 7.70703 4.97656 7.37891C1.33984 4.75391 1.06641 4.50781 0.246094 3.85156C0.0820312 3.74219 0 3.55078 0 3.33203V2.8125C0 2.10156 0.574219 1.5 1.3125 1.5H12.6875C13.3984 1.5 14 2.10156 14 2.8125V3.33203C14 3.55078 13.8906 3.74219 13.7266 3.85156C12.9062 4.50781 12.6328 4.75391 8.99609 7.37891C8.53125 7.70703 7.62891 8.52734 7 8.5Z" fill="white"/>
</svg>
