<svg width="15" height="16" viewBox="0 0 15 16" fill="none" xmlns="http://www.w3.org/2000/svg">
<path d="M13.6319 1.43359C13.9327 1.51562 14.1514 1.76172 14.1514 2.0625C14.1514 9.08984 8.46393 14.75 1.46393 14.75C1.13581 14.75 0.889716 14.5586 0.807685 14.2578L0.151435 11.4141C0.0967474 11.1133 0.233466 10.7852 0.534247 10.6484L3.59675 9.33594C3.87018 9.22656 4.17097 9.30859 4.36237 9.52734L5.72956 11.1953C7.86237 10.1836 9.58503 8.43359 10.5694 6.35547L8.90143 4.98828C8.68268 4.79688 8.60065 4.49609 8.71003 4.22266L10.0225 1.16016C10.1592 0.859375 10.4874 0.695312 10.7882 0.777344L13.6319 1.43359Z" fill="white"/>
</svg>
