<svg width="50" height="50" viewBox="0 0 50 50" fill="none" xmlns="http://www.w3.org/2000/svg">
<g clip-path="url(#clip0_160_2071)">
<path d="M49.5 25C49.5 38.531 38.531 49.5 25 49.5C11.469 49.5 0.5 38.531 0.5 25C0.5 11.469 11.469 0.5 25 0.5C38.531 0.5 49.5 11.469 49.5 25Z" fill="#015CAC" fill-opacity="0.22" stroke="white"/>
<path fill-rule="evenodd" clip-rule="evenodd" d="M24.6471 32.4118C24.5882 32.4118 24.5294 32.4118 24.5294 32.3529L21.3529 31.2941L18.1765 30.2941C18.0588 30.2941 18 30.2353 17.9412 30.1765L14.0588 24.7647C14 24.7059 14 24.5882 14 24.5294V17.8824C14 17.7647 14 17.7059 14.0588 17.5882L17.9412 12.2353C18 12.1765 18.0588 12.1176 18.1765 12.0588L21.3529 11.0588L24.5294 10H24.7647L31.1176 12.0588C31.2353 12.1176 31.2941 12.1765 31.3529 12.2353L35.2353 17.5882C35.2941 17.7059 35.2941 17.7647 35.2941 17.8824V24.5294C35.2941 24.5882 35.2941 24.7059 35.2353 24.7647L31.3529 30.1176C31.2941 30.2353 31.2353 30.2941 31.1176 30.2941L24.7647 32.3529C24.7647 32.3529 24.7059 32.4118 24.6471 32.4118ZM27.5294 40.1176C27.4706 40.1176 27.4706 40.1176 27.4118 40.1176C27.2941 40.0588 27.1176 39.9412 27.1176 39.7647L25.2941 33.0588L31.3529 31.0588C31.4706 31.0588 31.5882 31 31.7059 30.9412L33.5882 38.0588C33.6471 38.2353 33.5882 38.4118 33.4706 38.4706C33.3529 38.5882 33.1176 38.5882 33 38.5294L29.7647 36.9412L27.8235 39.9412C27.8235 40.0588 27.6471 40.1176 27.5294 40.1176ZM21.8824 40.1176C21.7059 40.1176 21.5882 40.0588 21.4706 39.8824L19.5294 36.8824L16.3529 38.5294C16.1765 38.5882 16 38.5882 15.8824 38.4706C15.7647 38.3529 15.6471 38.1765 15.7059 38L17.5882 30.9412L17.9412 31.1176L21.1176 32.1176L24 33.0588L22.2353 39.7647C22.1765 39.9412 22.0588 40.0588 21.8824 40.0588V40.1176ZM21.8824 25.8824C21.7647 25.8824 21.7059 25.8824 21.6471 25.8235C21.4706 25.7059 21.4118 25.5294 21.4706 25.3529L22.4706 22.3529L19.9412 20.5294C19.7647 20.4706 19.7059 20.2353 19.7647 20.0588C19.8235 19.8824 20 19.7647 20.1765 19.7647H23.2941L24.2353 16.8235C24.2941 16.6471 24.4706 16.5294 24.6471 16.5294C24.8824 16.5294 25 16.6471 25.0588 16.8235L26 19.7647H29.1765C29.3529 19.7647 29.4706 19.8824 29.5882 20.0588C29.5882 20.2353 29.5882 20.4118 29.4118 20.5294L26.8824 22.4118L27.8824 25.3529C27.9412 25.5294 27.8824 25.7059 27.7059 25.8235C27.5882 25.9412 27.4118 25.9412 27.2353 25.8235L24.7059 24L22.1765 25.8235C22.0588 25.8824 22 25.8824 21.8824 25.8824ZM24.6471 23C24.7647 23 24.8235 23 24.8824 23.0588L26.5882 24.2941L25.9412 22.2941C25.8824 22.1176 25.9412 21.9412 26.1176 21.8235L27.8235 20.5882H25.7059C25.5294 20.5882 25.3529 20.4706 25.2941 20.2941L24.6471 18.2941L23.9412 20.2941C23.9412 20.4706 23.7647 20.5882 23.5294 20.5882H21.4118L23.1176 21.8235C23.2941 21.9412 23.3529 22.1176 23.2941 22.2941L22.6471 24.2941L24.3529 23.0588C24.4706 23 24.5294 23 24.6471 23ZM24.6471 29.1765C20.2353 29.1765 16.6471 25.6471 16.6471 21.2353C16.6471 16.8235 20.2941 13.2353 24.6471 13.2353C29.0588 13.2353 32.6471 16.7647 32.6471 21.1765C32.6471 25.5882 29.0588 29.1765 24.6471 29.1765ZM24.6471 14.0588C20.7059 14.0588 17.5294 17.2941 17.5294 21.1765C17.5294 25.1176 20.7059 28.2941 24.6471 28.2941C28.5882 28.2941 31.7647 25.1176 31.7647 21.1765C31.7647 17.2941 28.5882 14.0588 24.6471 14.0588Z" fill="white"/>
</g>
<defs>
<clipPath id="clip0_160_2071">
<rect width="50" height="50" fill="white"/>
</clipPath>
</defs>
</svg>
