<svg width="50" height="50" viewBox="0 0 50 50" fill="none" xmlns="http://www.w3.org/2000/svg">
<g clip-path="url(#clip0_160_2088)">
<path d="M49.5 25C49.5 38.531 38.531 49.5 25 49.5C11.469 49.5 0.5 38.531 0.5 25C0.5 11.469 11.469 0.5 25 0.5C38.531 0.5 49.5 11.469 49.5 25Z" fill="#015CAC" fill-opacity="0.22" stroke="white"/>
<path fill-rule="evenodd" clip-rule="evenodd" d="M15.5039 31.6502H14.375C13.9766 31.6502 13.5781 31.4488 13.3125 31.1802C13.0469 30.9117 12.9805 30.576 12.9805 30.2403V29.5018C14.5078 29.5018 15.3047 29.2332 15.6367 29.3675C15.5039 29.8375 15.4375 30.3074 15.4375 30.7774C15.4375 31.0459 15.4375 31.3816 15.5039 31.6502ZM36.5547 34C34.7617 34 33.3008 32.523 33.3008 30.7774C33.3008 29.0318 34.7617 27.5548 36.5547 27.5548C38.2812 27.5548 39.7422 29.0318 39.7422 30.7774C39.7422 32.523 38.2812 34 36.5547 34ZM10.3906 21.2438H13.0469V22.6537H11.8516C11.5859 22.6537 11.3867 22.8551 11.3867 23.1237C11.3867 23.3922 11.5859 23.5936 11.8516 23.5936H13.0469V25.0035H8.46484C8.19922 25.0035 8 25.2721 8 25.5406C8 25.8092 8.19922 26.0106 8.46484 26.0106H13.0469L12.9805 28.4947H16.1016C16.832 27.3534 18.0938 26.682 19.4883 26.682C20.8828 26.682 22.1445 27.3534 22.875 28.4947H33.168C33.8984 27.3534 35.1602 26.682 36.5547 26.682C38.7461 26.682 40.6055 28.4947 40.6055 30.7774C40.6055 31.0459 40.6055 31.3816 40.5391 31.6502H41.1367C41.6016 31.6502 42 31.2473 42 30.7774V28.2261H40.7383C40.4727 28.2261 40.2734 28.0247 40.2734 27.7562C40.2734 27.4876 40.4727 27.2191 40.7383 27.2191H42V26.682C42 26.6148 42 26.5477 41.9336 26.5477L41.8672 26.3463C41.8672 26.3463 41.8672 26.3463 41.8008 26.3463H37.4844C35.6914 26.3463 34.1641 24.6678 34.1641 22.6537V19.6996H33.0352V16.4099C33.0352 15.6042 32.4375 15 31.6406 15H13.6445C13.3789 15 13.1797 15.2014 13.1133 15.47V17.6184H13.1797H22.7422C23.0078 17.6184 23.207 17.8198 23.207 18.0883C23.207 18.424 22.9414 18.6254 22.7422 18.6254H13.1797H13.1133V20.2367H10.3906C10.125 20.2367 9.85938 20.5053 9.85938 20.7739C9.85938 21.0424 10.125 21.2438 10.3906 21.2438ZM13.1133 21.2438V20.2367H19.2227C19.4883 20.2367 19.7539 20.5053 19.7539 20.7739C19.7539 21.0424 19.4883 21.2438 19.2227 21.2438H13.1133ZM13.1133 23.5936V22.6537H20.6836C20.9492 22.6537 21.2148 22.8551 21.2148 23.1237C21.2148 23.3922 20.9492 23.5936 20.6836 23.5936H13.1133ZM13.1133 26.0106V25.0035H17.3633C17.6289 25.0035 17.8281 25.2721 17.8281 25.5406C17.8281 25.8092 17.6289 26.0106 17.3633 26.0106H13.1133ZM19.4883 34C17.6953 34 16.3008 32.523 16.3008 30.7774C16.3008 29.0318 17.7617 27.5548 19.4883 27.5548C21.2812 27.5548 22.6758 29.0318 22.6758 30.7774C22.6758 32.523 21.2812 34 19.4883 34ZM32.5039 31.6502C29.7148 31.6502 26.3281 31.6502 23.4727 31.6502C23.5391 31.3816 23.6055 31.0459 23.6055 30.7774C23.6055 30.3074 23.4727 29.9046 23.3398 29.5018H32.6367C32.5039 29.9046 32.4375 30.3074 32.4375 30.7774C32.4375 31.1131 32.5039 31.3816 32.5039 31.6502ZM35.1602 19.6996H38.4141C39.1445 19.6996 39.3438 20.3039 39.543 20.6396L41.4688 25.3392H37.5508C36.2227 25.3392 35.1602 24.1307 35.1602 22.6537V19.6996Z" fill="white"/>
</g>
<defs>
<clipPath id="clip0_160_2088">
<rect width="50" height="50" fill="white"/>
</clipPath>
</defs>
</svg>
