<svg width="50" height="50" viewBox="0 0 50 50" fill="none" xmlns="http://www.w3.org/2000/svg">
<g clip-path="url(#clip0_160_2075)">
<path d="M49.5 25C49.5 38.531 38.531 49.5 25 49.5C11.469 49.5 0.5 38.531 0.5 25C0.5 11.469 11.469 0.5 25 0.5C38.531 0.5 49.5 11.469 49.5 25Z" fill="#015CAC" fill-opacity="0.22" stroke="white"/>
<path fill-rule="evenodd" clip-rule="evenodd" d="M27.6155 32.0991C28.3717 30.8414 29.7495 30 31.3239 30C32.0527 30 32.7394 30.1803 33.3418 30.4988V14.3411C33.3418 13.6012 32.7869 13 32.0469 13H17.3411C16.6012 13 16 13.6012 16 14.3411V34.9663C16 35.7062 16.6012 36.3074 17.3411 36.3074H27.4808C27.1735 35.7133 27 35.0389 27 34.3239C27 33.7848 27.0987 33.2687 27.2789 32.7928H23.0292C22.8442 32.7928 22.7055 32.654 22.7055 32.4691C22.7055 32.2378 22.8442 32.0991 23.0292 32.0991H27.6155ZM19.8383 32.7928H18.081C17.8498 32.7928 17.7111 32.654 17.7111 32.4691C17.7111 32.2378 17.8498 32.0991 18.081 32.0991H19.8383C20.0233 32.0991 20.162 32.2378 20.162 32.4691C20.162 32.654 19.9771 32.7928 19.8383 32.7928ZM31.3533 28.9082H18.0348C17.8498 28.9082 17.7111 28.7232 17.7111 28.5383C17.7111 28.3533 17.8498 28.2145 18.0348 28.2145H31.3533C31.5383 28.2145 31.7232 28.3533 31.7232 28.5383C31.7232 28.7232 31.5383 28.9082 31.3533 28.9082ZM31.3533 24.9774H18.0348C17.8498 24.9774 17.7111 24.8387 17.7111 24.6537C17.7111 24.4687 17.8498 24.33 18.0348 24.33H31.3533C31.5383 24.33 31.7232 24.4687 31.7232 24.6537C31.7232 24.8387 31.5383 24.9774 31.3533 24.9774ZM31.3533 21.0928H18.0348C17.8498 21.0928 17.7111 20.9541 17.7111 20.7691C17.7111 20.5379 17.8498 20.3992 18.0348 20.3992H31.3533C31.5383 20.3992 31.7232 20.5379 31.7232 20.7691C31.7232 20.9541 31.5383 21.0928 31.3533 21.0928ZM27.2837 17.2083H22.1043C21.8731 17.2083 21.7344 17.0695 21.7344 16.8383C21.7344 16.6533 21.8731 16.5146 22.1043 16.5146H27.2837C27.515 16.5146 27.6537 16.6533 27.6537 16.8383C27.6537 17.0695 27.515 17.2083 27.2837 17.2083Z" fill="white"/>
<path fill-rule="evenodd" clip-rule="evenodd" d="M31.3239 38.6478C33.7119 38.6478 35.6478 36.7119 35.6478 34.3239C35.6478 31.9359 33.7119 30 31.3239 30C28.9359 30 27 31.9359 27 34.3239C27 36.7119 28.9359 38.6478 31.3239 38.6478ZM34.4165 33.4562C34.6684 33.2261 34.6862 32.8354 34.4562 32.5835C34.2261 32.3316 33.8354 32.3138 33.5835 32.5438L30.8025 35.083L29.4959 33.324C29.2924 33.0501 28.9055 32.993 28.6317 33.1965C28.3578 33.3999 28.3007 33.7868 28.5041 34.0607L30.2184 36.3683C30.3226 36.5086 30.4812 36.5981 30.6551 36.6149C30.829 36.6316 31.0018 36.5739 31.1308 36.4562L34.4165 33.4562Z" fill="white"/>
</g>
<defs>
<clipPath id="clip0_160_2075">
<rect width="50" height="50" fill="white"/>
</clipPath>
</defs>
</svg>
