<svg width="50" height="50" viewBox="0 0 50 50" fill="none" xmlns="http://www.w3.org/2000/svg">
<g clip-path="url(#clip0_160_2061)">
<path d="M49.5 25C49.5 38.531 38.531 49.5 25 49.5C11.469 49.5 0.5 38.531 0.5 25C0.5 11.469 11.469 0.5 25 0.5C38.531 0.5 49.5 11.469 49.5 25Z" fill="#015CAC" fill-opacity="0.22" stroke="white"/>
<path fill-rule="evenodd" clip-rule="evenodd" d="M37.1762 40.1176H35.1174V32.7059C35.1174 32.4706 34.9409 32.2941 34.7056 32.2941H28.9998C28.7056 32.2941 28.5292 32.4706 28.5292 32.7059V40.1176H13.4115C13.1762 40.1176 12.9998 39.8823 12.9998 39.6471V29.7059C12.9998 29.5882 13.0586 29.4118 13.1762 29.3529L19.3527 25.5882C19.4115 25.5294 19.5292 25.5294 19.6468 25.5294C19.7645 25.5294 19.8233 25.6471 19.9409 25.7059L21.9409 29.1176L27.7056 25.5882C27.7645 25.5294 27.8821 25.5294 27.9998 25.5294C28.1174 25.5294 28.1762 25.6471 28.2939 25.7059L30.3527 29.2941H37.1762C37.4115 29.2941 37.588 29.4706 37.588 29.7059V39.7059C37.6468 39.8823 37.4703 40.1176 37.1762 40.1176ZM34.2939 40.1176H29.4115V33.1765H34.2939V40.1176ZM18.7645 34.3529H16.2939C15.9998 34.3529 15.8233 34.1765 15.8233 33.9412V31.4118C15.8233 31.1765 15.9998 30.9412 16.2939 30.9412H18.7645C19.0586 30.9412 19.235 31.1765 19.235 31.4118V33.9412C19.235 34.1765 19.0586 34.3529 18.7645 34.3529ZM16.7056 33.5294H18.3527V31.8235H16.7056V33.5294ZM22.9409 34.3529H20.4115C20.1762 34.3529 19.9409 34.1765 19.9409 33.9412V31.4118C19.9409 31.1765 20.1762 30.9412 20.4115 30.9412H22.9409C23.1762 30.9412 23.3527 31.1765 23.3527 31.4118V33.9412C23.3527 34.1765 23.1762 34.3529 22.9409 34.3529ZM20.8233 33.5294H22.4703V31.8235H20.8233V33.5294ZM18.7645 38.4118H16.2939C15.9998 38.4118 15.8233 38.1765 15.8233 37.9412V35.4706C15.8233 35.1765 15.9998 35 16.2939 35H18.7645C19.0586 35 19.235 35.1765 19.235 35.4706V37.9412C19.235 38.1765 19.0586 38.4118 18.7645 38.4118ZM16.7056 37.5294H18.3527V35.8823H16.7056V37.5294ZM22.9409 38.4118H20.4115C20.1762 38.4118 19.9409 38.1765 19.9409 37.9412V35.4706C19.9409 35.1765 20.1762 35 20.4115 35H22.9409C23.1762 35 23.3527 35.1765 23.3527 35.4706V37.9412C23.3527 38.1765 23.1762 38.4118 22.9409 38.4118ZM20.8233 37.5294H22.4703V35.8823H20.8233V37.5294Z" fill="white"/>
<path fill-rule="evenodd" clip-rule="evenodd" d="M13.1174 28.4118L14.0586 18C14.0586 17.7647 14.2351 17.5882 14.4704 17.5882H16.4704C16.7057 17.5882 16.8821 17.7647 16.8821 18L17.588 25.7059L13.1174 28.4118Z" fill="white"/>
<path fill-rule="evenodd" clip-rule="evenodd" d="M18.8821 24.8824L19.4703 18C19.5291 17.7647 19.6468 17.5882 19.8821 17.5882H21.9409C22.1174 17.5882 22.3527 17.7647 22.3527 18L23.1762 27.4118L22.235 28L20.6468 25.2941C20.4703 25 20.1762 24.8235 19.8233 24.7059C19.5291 24.6471 19.1762 24.7059 18.8821 24.8824Z" fill="white"/>
<path fill-rule="evenodd" clip-rule="evenodd" d="M20.9409 16.9412C20.8821 16.9412 20.8821 16.9412 20.8232 16.8824C20.6468 16.8235 20.4703 16.6471 20.5291 16.4118C20.5291 16.3529 20.7056 15.2353 21.235 14.0588C21.6468 13.2353 23.0585 12.0588 23.1762 12C23.8232 11.7059 24.5291 11.8235 25.2938 11.8824C26.7056 12.0588 28.0585 12.1765 29.235 10.2353C29.3526 10 29.5879 9.94118 29.7644 10.0588C29.9997 10.1176 30.0585 10.3529 29.9997 10.5294C29.9409 10.7647 28.2938 15.6471 25.0585 14.7647C22.5879 14 21.4115 16.5294 21.3526 16.6471C21.235 16.8235 21.1174 16.9412 20.9409 16.9412Z" fill="white"/>
<path fill-rule="evenodd" clip-rule="evenodd" d="M15.4705 17.1765C15.4116 17.1765 15.4116 17.1765 15.3528 17.1177C15.1175 17.0588 14.9999 16.8824 15.0587 16.6471C15.0587 16.5294 15.5881 13.5882 17.294 12.4118C17.941 12 18.6469 11.8824 19.5293 12.1177C22.294 12.8235 23.7057 10.5294 23.7646 10.4118C23.8822 10.2353 24.1175 10.1177 24.294 10.2353C24.4705 10.3529 24.5881 10.5294 24.5293 10.7647C24.4705 10.9412 22.8234 15.8824 19.5881 14.9412C17.0587 14.2353 15.8822 16.7647 15.8822 16.8824C15.7646 17.0588 15.6469 17.1765 15.4705 17.1765Z" fill="white"/>
</g>
<defs>
<clipPath id="clip0_160_2061">
<rect width="50" height="50" fill="white"/>
</clipPath>
</defs>
</svg>
