<svg width="36" height="36" fill="none" xmlns="http://www.w3.org/2000/svg"><g clip-path="url(#clip0_109_66)"><path d="M23.456 19.462a.564.564 0 00-.562.563c0 3.319 2.925 5.963 6.525 5.963 3.6 0 6.525-2.7 6.525-5.963a.564.564 0 00-.563-.563h-1.125l-4.218-12.15h2.193c.675 0 1.238-.562 1.238-1.237s-.563-1.237-1.238-1.237H19.294l-.113-2.982c0-.619-.562-1.125-1.181-1.125-.675 0-1.181.507-1.181 1.182l-.113 2.98H3.77c-.675 0-1.238.563-1.238 1.238S3.094 7.37 3.77 7.37h2.137L1.688 19.462H.563a.564.564 0 00-.563.563c0 3.319 2.925 5.963 6.525 5.963 3.6 0 6.525-2.7 6.525-5.963a.564.564 0 00-.563-.563h-1.124l-4.22-12.15h9.507l-.675 22.613h-4.669l-1.35 2.7H7.875l-1.575 2.7h23.456l-1.575-2.7H26.1l-1.35-2.7h-4.669L19.35 7.312h9.506l-4.275 12.15h-1.125zm-13.218 0H2.813L6.524 8.944l3.713 10.518zM29.474 8.944l3.712 10.518h-7.424l3.712-10.518z" fill="#1E73BE"/></g><defs><clipPath id="clip0_109_66"><path fill="#fff" d="M0 0h36v36H0z"/></clipPath></defs></svg>