<svg width="30" height="30" fill="none" xmlns="http://www.w3.org/2000/svg"><g clip-path="url(#clip0_114_79)"><path d="M13.211 0C5.927 0 0 5.927 0 13.211c0 7.285 5.927 13.212 13.211 13.212 7.285 0 13.212-5.927 13.212-13.212C26.423 5.927 20.496 0 13.21 0zm0 23.984c-5.94 0-10.772-4.833-10.772-10.773 0-5.94 4.833-10.772 10.772-10.772 5.94 0 10.773 4.833 10.773 10.772 0 5.94-4.833 10.773-10.773 10.773z" fill="#989898"/><path d="M29.643 27.919l-6.992-6.992a1.219 1.219 0 10-1.724 1.724l6.992 6.992a1.215 1.215 0 001.724 0 1.219 1.219 0 000-1.724z" fill="#989898"/><path d="M5.833 13.334h15m-7.499 7.5v-15" stroke="#989898" stroke-width="1.667" stroke-linecap="round"/></g><defs><clipPath id="clip0_114_79"><path fill="#fff" d="M0 0h30v30H0z"/></clipPath></defs></svg>