<svg width="14" height="14" fill="none" xmlns="http://www.w3.org/2000/svg"><path d="M13.727 4.973c.109-.082.273 0 .273.136v5.579c0 .738-.602 1.312-1.313 1.312H1.313A1.296 1.296 0 010 10.687V5.11c0-.136.137-.218.246-.136.629.492 1.422 1.093 4.211 3.117C5.031 8.5 6.016 9.402 7 9.402c.957 0 1.969-.902 2.516-1.312 2.789-2.024 3.582-2.625 4.21-3.117zM7 8.5c-.656.027-1.559-.793-2.023-1.121C1.34 4.754 1.067 4.508.247 3.852.081 3.742 0 3.55 0 3.332v-.52C0 2.103.574 1.5 1.313 1.5h11.374c.711 0 1.313.602 1.313 1.313v.519c0 .219-.11.41-.273.52-.82.656-1.094.902-4.73 3.527C8.53 7.707 7.628 8.527 7 8.5z" fill="#fff"/></svg>