<svg width="40" height="40" viewBox="0 0 40 40" fill="none" xmlns="http://www.w3.org/2000/svg">
<path d="M15.6464 19.2154C17.21 17.995 18.218 16.0948 18.218 13.9624C18.218 10.2886 15.2292 7.2998 11.5556 7.2998H1.32686C0.593904 7.2998 0 7.89389 0 8.62667V31.3732C0 32.106 0.593904 32.7001 1.32686 32.7001H11.5556C15.6165 32.7001 18.9202 29.3965 18.9202 25.3361C18.9202 22.7877 17.619 20.538 15.6464 19.2154ZM11.5556 9.95353C13.766 9.95353 15.5643 11.7521 15.5643 13.9624C15.5643 16.1728 13.766 17.9712 11.5556 17.9712H2.65373V9.95353H11.5556ZM11.5556 30.0463H2.65373V20.6249H11.5556C14.1532 20.6249 16.2665 22.7383 16.2665 25.336C16.2665 27.9333 14.1532 30.0463 11.5556 30.0463Z" fill="#EBEBEB" fill-opacity="0.8"/>
<path d="M30.2828 13.2673C24.9252 13.2673 20.5664 17.626 20.5664 22.9837C20.5664 28.3414 24.9252 32.7001 30.2828 32.7001C32.8781 32.7001 35.3181 31.6893 37.1534 29.854C37.6718 29.3358 37.6718 28.4958 37.1536 27.9777C36.6354 27.4595 35.7953 27.4595 35.2771 27.9777C33.9428 29.3116 32.1692 30.0463 30.2828 30.0463C26.8421 30.0463 23.9697 27.5725 23.347 24.3106H38.6724C39.4054 24.3106 39.9993 23.7165 39.9993 22.9837C39.9993 17.626 35.6405 13.2673 30.2828 13.2673ZM30.2828 15.9211C33.7234 15.9211 36.5958 18.3947 37.2187 21.6568H23.347C23.9697 18.3947 26.8421 15.9211 30.2828 15.9211Z" fill="#EBEBEB" fill-opacity="0.8"/>
<path d="M24.3132 10.6554H35.5461C36.279 10.6554 36.8729 10.0614 36.8729 9.32857C36.8729 8.59579 36.279 8.00171 35.5461 8.00171H24.3132C23.5802 8.00171 22.9863 8.59579 22.9863 9.32857C22.9863 10.0614 23.5802 10.6554 24.3132 10.6554Z" fill="#EBEBEB" fill-opacity="0.8"/>
</svg>
