<svg width="40" height="40" viewBox="0 0 40 40" fill="none" xmlns="http://www.w3.org/2000/svg">
<path d="M36.0003 36.0001V24.2801C36.0003 18.5201 34.7603 14.1201 28.0403 14.1201C24.8003 14.1201 22.6403 15.8801 21.7603 17.5601H21.6803V14.6401H15.3203V36.0001H21.9603V25.4001C21.9603 22.6001 22.4803 19.9201 25.9203 19.9201C29.3203 19.9201 29.3603 23.0801 29.3603 25.5601V35.9601H36.0003V36.0001Z" fill="#EBEBEB" fill-opacity="0.8"/>
<path d="M4.51953 14.6399H11.1595V35.9999H4.51953V14.6399Z" fill="#EBEBEB" fill-opacity="0.8"/>
<path d="M7.84 4C5.72 4 4 5.72 4 7.84C4 9.96 5.72 11.72 7.84 11.72C9.96 11.72 11.68 9.96 11.68 7.84C11.68 5.72 9.96 4 7.84 4Z" fill="#EBEBEB" fill-opacity="0.8"/>
</svg>
