<svg width="40" height="40" viewBox="0 0 40 40" fill="none" xmlns="http://www.w3.org/2000/svg">
<path fill-rule="evenodd" clip-rule="evenodd" d="M33.2658 6.68015C29.7575 3.16772 25.0918 1.23253 20.1211 1.23047C9.87868 1.23047 1.5428 9.56612 1.53868 19.8113C1.53731 23.0864 2.39287 26.2834 4.01907 29.1014L1.38281 38.7305L11.2337 36.1464C13.948 37.627 17.0038 38.4073 20.1136 38.4082H20.1214C30.3627 38.4082 38.6995 30.0719 38.7034 19.8262C38.7054 14.8608 36.7744 10.1923 33.2658 6.68015ZM20.1211 35.27H20.1147C17.3434 35.2689 14.6255 34.5241 12.2538 33.1171L11.69 32.7823L5.84441 34.3158L7.40469 28.6164L7.03734 28.0321C5.49124 25.573 4.67482 22.7307 4.67619 19.8125C4.6794 11.2969 11.6081 4.3689 20.1273 4.3689C24.2527 4.37027 28.1306 5.97885 31.0466 8.89824C33.9625 11.8176 35.5675 15.6981 35.5661 19.8251C35.5624 28.3413 28.6342 35.27 20.1211 35.27ZM28.593 23.7025C28.1288 23.47 25.8459 22.3471 25.4202 22.1919C24.9949 22.037 24.685 21.9598 24.3758 22.4245C24.0661 22.8891 23.1765 23.9351 22.9055 24.2448C22.6345 24.5547 22.364 24.5936 21.8996 24.361C21.4352 24.1287 19.9392 23.6382 18.1656 22.0564C16.7854 20.8253 15.8536 19.3048 15.5826 18.8402C15.3121 18.3751 15.5804 18.148 15.7863 17.8926C16.289 17.2684 16.7923 16.6141 16.947 16.3044C17.102 15.9945 17.0244 15.7233 16.9081 15.491C16.7923 15.2586 15.8637 12.9733 15.4769 12.0433C15.0997 11.1383 14.7172 11.2605 14.4321 11.2463C14.1615 11.2328 13.8518 11.2301 13.5422 11.2301C13.2327 11.2301 12.7296 11.3461 12.3039 11.8112C11.8784 12.2761 10.6791 13.3992 10.6791 15.6846C10.6791 17.97 12.3428 20.1778 12.5749 20.4877C12.807 20.7976 15.8491 25.4874 20.5066 27.4983C21.6144 27.9771 22.4791 28.2626 23.1536 28.4766C24.266 28.83 25.2778 28.7801 26.078 28.6606C26.9702 28.5271 28.8248 27.5372 29.2121 26.4528C29.5989 25.3681 29.5989 24.4386 29.4826 24.2448C29.3668 24.0511 29.0571 23.9351 28.593 23.7025Z" fill="#EBEBEB" fill-opacity="0.8"/>
</svg>
