<svg width="36" height="36" viewBox="0 0 36 36" fill="none" xmlns="http://www.w3.org/2000/svg">
<g clip-path="url(#clip0_109_66)">
<path d="M23.4563 19.4625C23.175 19.4625 22.8938 19.6875 22.8938 20.025C22.8938 23.3437 25.8187 25.9875 29.4187 25.9875C33.0187 25.9875 35.9438 23.2875 35.9438 20.025C35.9438 19.7437 35.7188 19.4625 35.3813 19.4625H34.2563L30.0375 7.3125H32.2312C32.9062 7.3125 33.4688 6.75 33.4688 6.075C33.4688 5.4 32.9062 4.8375 32.2312 4.8375H19.2937L19.1812 1.85625C19.1812 1.2375 18.6188 0.731247 18 0.731247C17.325 0.731247 16.8187 1.2375 16.8187 1.9125L16.7063 4.89375H3.76875C3.09375 4.89375 2.53125 5.45625 2.53125 6.13125C2.53125 6.80625 3.09375 7.36875 3.76875 7.36875H5.90625L1.6875 19.4625H0.5625C0.28125 19.4625 0 19.6875 0 20.025C0 23.3437 2.925 25.9875 6.525 25.9875C10.125 25.9875 13.05 23.2875 13.05 20.025C13.05 19.7437 12.825 19.4625 12.4875 19.4625H11.3625L7.14375 7.3125H16.65L15.975 29.925H11.3063L9.95625 32.625H7.875L6.3 35.325H29.7563L28.1812 32.625H26.1L24.75 29.925H20.0813L19.35 7.3125H28.8562L24.5813 19.4625H23.4563ZM10.2375 19.4625H2.8125L6.525 8.94375L10.2375 19.4625ZM29.475 8.94375L33.1875 19.4625H25.7625L29.475 8.94375Z" fill="#1E73BE"/>
</g>
<defs>
<clipPath id="clip0_109_66">
<rect width="36" height="36" fill="white"/>
</clipPath>
</defs>
</svg>
