<svg width="24" height="24" viewBox="0 0 24 24" fill="none" xmlns="http://www.w3.org/2000/svg">
<path d="M9.62388 21.4625C14.1234 21.4625 17.771 17.8149 17.771 13.3154C17.771 8.81591 14.1234 5.16833 9.62388 5.16833C5.12438 5.16833 1.47681 8.81591 1.47681 13.3154C1.47681 17.8149 5.12438 21.4625 9.62388 21.4625Z" fill="#015CAC" fill-opacity="0.22"/>
<path d="M9.71605 19.6125L9.61271 19.4364C8.03425 16.747 3.83969 11.0397 3.79732 10.9824L3.73682 10.9002L5.16588 9.48791L9.68951 12.6466C12.5377 8.95067 15.1949 6.41212 16.9281 4.92971C18.8242 3.30809 20.0584 2.56155 20.0708 2.5544L20.0989 2.5376H22.523L22.2914 2.74381C16.3363 8.04809 9.88146 19.3218 9.81717 19.4351L9.71605 19.6125Z" fill="#1E73BE"/>
</svg>
