<svg width="30" height="30" viewBox="0 0 30 30" fill="none" xmlns="http://www.w3.org/2000/svg">
<g clip-path="url(#clip0_114_79)">
<path d="M13.2114 0C5.92682 0 0 5.92682 0 13.2114C0 20.4963 5.92682 26.4227 13.2114 26.4227C20.4963 26.4227 26.4227 20.4963 26.4227 13.2114C26.4227 5.92682 20.4963 0 13.2114 0ZM13.2114 23.9838C7.27154 23.9838 2.43902 19.1512 2.43902 13.2114C2.43902 7.2716 7.27154 2.43902 13.2114 2.43902C19.1512 2.43902 23.9837 7.27154 23.9837 13.2114C23.9837 19.1512 19.1512 23.9838 13.2114 23.9838Z" fill="#989898"/>
<path d="M29.6429 27.9185L22.6511 20.9267C22.1746 20.4502 21.4031 20.4502 20.9267 20.9267C20.4502 21.4027 20.4502 22.1751 20.9267 22.6511L27.9185 29.6429C28.1567 29.8811 28.4685 30.0002 28.7807 30.0002C29.0925 30.0002 29.4047 29.8811 29.6429 29.6429C30.1194 29.1669 30.1194 28.3945 29.6429 27.9185Z" fill="#989898"/>
<path d="M5.8335 13.3335H20.8335" stroke="#989898" stroke-width="1.66667" stroke-linecap="round"/>
<path d="M13.3335 20.8335L13.3335 5.8335" stroke="#989898" stroke-width="1.66667" stroke-linecap="round"/>
</g>
<defs>
<clipPath id="clip0_114_79">
<rect width="30" height="30" fill="white"/>
</clipPath>
</defs>
</svg>
