<svg width="15" height="15" viewBox="0 0 15 15" fill="none" xmlns="http://www.w3.org/2000/svg">
<path d="M7.49979 2.57812C4.33103 2.57812 1.40604 4.425 0.0466797 7.28906C-0.0142578 7.42499 -0.0142578 7.58437 0.0466797 7.71561C1.41073 10.575 4.33572 12.4219 7.49979 12.4219C10.6638 12.4219 13.5888 10.575 14.9529 7.71561C15.0139 7.58437 15.0139 7.42498 14.9529 7.28906C13.5935 4.425 10.6685 2.57812 7.49979 2.57812ZM7.49979 10.4719C5.86385 10.4719 4.52793 9.13593 4.52793 7.5C4.52793 5.86407 5.86385 4.52811 7.49979 4.52811C9.13572 4.52811 10.4717 5.86407 10.4717 7.5C10.4717 9.13593 9.13572 10.4719 7.49979 10.4719Z" fill="#1E73BE"/>
<path d="M7.5 9.46875C8.58731 9.46875 9.46875 8.58731 9.46875 7.5C9.46875 6.41269 8.58731 5.53125 7.5 5.53125C6.41269 5.53125 5.53125 6.41269 5.53125 7.5C5.53125 8.58731 6.41269 9.46875 7.5 9.46875Z" fill="#1E73BE"/>
</svg>
