<svg width="35" height="35" fill="none" xmlns="http://www.w3.org/2000/svg"><path d="M22.969 13.628L19.042 17.5l3.927 3.872a1.094 1.094 0 010 1.597 1.096 1.096 0 01-1.543 0L17.5 19.042l-3.872 3.927a1.094 1.094 0 01-1.542 0 1.094 1.094 0 010-1.542l3.872-3.927-3.872-3.872a1.094 1.094 0 011.542-1.542l3.872 3.872 3.872-3.872a1.11 1.11 0 011.597 1.542zm5.359 14.7A15.312 15.312 0 116.674 6.672a15.312 15.312 0 0121.654 21.656zM26.786 8.214a13.125 13.125 0 10-18.53 18.594 13.125 13.125 0 0018.53-18.594z" fill="#fff"/></svg>