<svg width="35" height="35" fill="none" xmlns="http://www.w3.org/2000/svg"><path fill-rule="evenodd" clip-rule="evenodd" d="M17.5 1.094c-9.055 0-16.406 7.35-16.406 16.406 0 9.055 7.35 16.406 16.406 16.406 9.055 0 16.406-7.35 16.406-16.406 0-9.055-7.35-16.406-16.406-16.406zm0 2.187c7.848 0 14.219 6.371 14.219 14.219 0 7.848-6.371 14.219-14.219 14.219-7.848 0-14.219-6.371-14.219-14.219 0-7.848 6.371-14.219 14.219-14.219zm-5.469 21.875H22.97a1.094 1.094 0 000-2.187H12.03a1.094 1.094 0 000 2.187zm0-6.562H22.97a1.094 1.094 0 000-2.188H12.03a1.094 1.094 0 000 2.188zm0-6.563H22.97a1.094 1.094 0 000-2.187H12.03a1.094 1.094 0 000 2.187z" fill="#fff"/></svg>