<svg width="40" height="40" fill="none" xmlns="http://www.w3.org/2000/svg"><rect x="1" y="1" width="38" height="38" rx="6.833" stroke="#DD2A1A" stroke-width="2"/><path d="M31.608 8.148c.542.148.936.592.936 1.134 0 12.669-10.253 22.873-22.872 22.873-.592 0-1.035-.345-1.183-.888l-1.183-5.126c-.099-.542.148-1.134.69-1.38l5.52-2.366a1.221 1.221 0 011.381.345l2.465 3.007a18.504 18.504 0 008.725-8.726l-3.007-2.464a1.22 1.22 0 01-.345-1.38L25.1 7.656c.246-.543.838-.838 1.38-.69l5.127 1.182z" fill="#DD2A1A"/></svg>