<svg width="21" height="23" fill="none" xmlns="http://www.w3.org/2000/svg"><path d="M20.125 9.445c.156-.117.39 0 .39.196v7.981c0 1.056-.86 1.878-1.877 1.878H2.362a1.854 1.854 0 01-1.878-1.878V9.641c0-.196.196-.313.352-.196.9.704 2.035 1.565 6.025 4.46.822.587 2.23 1.878 3.639 1.878 1.37 0 2.817-1.29 3.6-1.878 3.99-2.895 5.125-3.756 6.025-4.46zM10.5 14.492c-.939.04-2.23-1.135-2.895-1.604C2.4 9.132 2.01 8.78.836 7.841c-.234-.157-.352-.43-.352-.743v-.744c0-1.017.822-1.878 1.878-1.878h16.276c1.017 0 1.878.861 1.878 1.878v.744a.89.89 0 01-.391.743c-1.174.939-1.565 1.291-6.769 5.047-.665.47-1.956 1.643-2.856 1.604z" fill="#DD2A1A"/></svg>