<svg width="40" height="40" viewBox="0 0 40 40" fill="none" xmlns="http://www.w3.org/2000/svg">
<g clip-path="url(#clip0_277_90)">
<path d="M19.9975 0.416504C8.955 0.416504 0 9.4065 0 20.4965C0 29.3665 5.73 36.8915 13.68 39.549C14.68 39.734 15.045 39.114 15.045 38.5815C15.045 38.104 15.0275 36.8415 15.0175 35.1665C9.455 36.379 8.28 32.474 8.28 32.474C7.3725 30.154 6.06 29.5365 6.06 29.5365C4.2425 28.2915 6.195 28.3165 6.195 28.3165C8.2025 28.459 9.2575 30.3865 9.2575 30.3865C11.0425 33.454 13.94 32.569 15.08 32.054C15.26 30.7565 15.7775 29.8715 16.35 29.369C11.91 28.8615 7.24 27.139 7.24 19.4465C7.24 17.254 8.02 15.4615 9.3 14.0565C9.0925 13.549 8.4075 11.5065 9.495 8.744C9.495 8.744 11.175 8.204 14.995 10.8015C16.59 10.3565 18.3 10.134 20.0025 10.1265C21.7 10.1365 23.4125 10.3565 25.01 10.804C28.8275 8.2065 30.505 8.7465 30.505 8.7465C31.595 11.5115 30.91 13.5515 30.705 14.059C31.9875 15.464 32.76 17.2565 32.76 19.449C32.76 27.1615 28.085 28.859 23.63 29.3565C24.3475 29.9765 24.9875 31.2015 24.9875 33.074C24.9875 35.759 24.9625 37.924 24.9625 38.5815C24.9625 39.119 25.3225 39.744 26.3375 39.5465C34.275 36.8865 40 29.364 40 20.4965C40 9.4065 31.045 0.416504 19.9975 0.416504Z" fill="#5C6BC0"/>
</g>
<defs>
<clipPath id="clip0_277_90">
<rect width="40" height="40" fill="white"/>
</clipPath>
</defs>
</svg>
