<svg width="40" height="40" viewBox="0 0 40 40" fill="none" xmlns="http://www.w3.org/2000/svg">
<g clip-path="url(#clip0_331_154)">
<path d="M20 39.9995C31.0457 39.9995 40 31.0452 40 19.9995C40 8.95382 31.0457 -0.000488281 20 -0.000488281C8.95431 -0.000488281 0 8.95382 0 19.9995C0 31.0452 8.95431 39.9995 20 39.9995Z" fill="#0090DA"/>
<g clip-path="url(#clip1_331_154)">
<path d="M15.6324 22.916L15.2685 28.0346C15.7892 28.0346 16.0147 27.811 16.2851 27.5424L18.7262 25.2095L23.7843 28.9137C24.712 29.4307 25.3656 29.1585 25.6158 28.0603L28.936 12.5026L28.9369 12.5017C29.2312 11.1304 28.441 10.5941 27.5372 10.9305L8.02133 18.4023C6.68941 18.9193 6.70958 19.6618 7.79491 19.9982L12.7843 21.5501L24.3737 14.2984C24.9192 13.9372 25.4151 14.137 25.0072 14.4982L15.6324 22.916Z" fill="#2D2D2D"/>
</g>
</g>
<defs>
<clipPath id="clip0_331_154">
<rect width="40" height="40" fill="white"/>
</clipPath>
<clipPath id="clip1_331_154">
<rect width="22" height="22" fill="white" transform="translate(7 9)"/>
</clipPath>
</defs>
</svg>
