<svg width="40" height="40" fill="none" xmlns="http://www.w3.org/2000/svg"><path d="M15.646 19.215a6.653 6.653 0 002.572-5.253A6.67 6.67 0 0011.556 7.3H1.326C.595 7.3 0 7.894 0 8.627v22.746c0 .733.594 1.327 1.327 1.327h10.229c4.06 0 7.364-3.304 7.364-7.364a7.363 7.363 0 00-3.274-6.12zm-4.09-9.261a4.013 4.013 0 014.008 4.008 4.013 4.013 0 01-4.008 4.01H2.654V9.953h8.902zm0 20.092H2.654v-9.421h8.902a4.716 4.716 0 014.71 4.711 4.716 4.716 0 01-4.71 4.71zm18.727-16.779c-5.358 0-9.717 4.359-9.717 9.717 0 5.357 4.36 9.716 9.717 9.716a9.653 9.653 0 006.87-2.846 1.326 1.326 0 10-1.876-1.876 7.018 7.018 0 01-4.994 2.068c-3.44 0-6.313-2.473-6.936-5.735h15.325c.733 0 1.327-.595 1.327-1.327 0-5.358-4.358-9.717-9.716-9.717zm0 2.654c3.44 0 6.313 2.474 6.936 5.736H23.347c.623-3.262 3.495-5.736 6.936-5.736zm-5.97-5.266h11.233a1.327 1.327 0 100-2.653H24.313a1.327 1.327 0 100 2.653z" fill="#EBEBEB" fill-opacity=".8"/></svg>