<svg width="50" height="50" fill="none" xmlns="http://www.w3.org/2000/svg"><g clip-path="url(#clip0_160_2071)"><path d="M49.5 25c0 13.531-10.969 24.5-24.5 24.5S.5 38.531.5 25 11.469.5 25 .5 49.5 11.469 49.5 25z" fill="#015CAC" fill-opacity=".22" stroke="#fff"/><path fill-rule="evenodd" clip-rule="evenodd" d="M24.647 32.412c-.059 0-.118 0-.118-.06l-3.176-1.058-3.177-1c-.117 0-.176-.059-.235-.117l-3.882-5.412c-.059-.06-.059-.177-.059-.236v-6.647c0-.117 0-.176.059-.294l3.882-5.353c.059-.058.118-.117.236-.176l3.176-1L24.529 10h.236l6.353 2.059c.117.059.176.118.235.176l3.882 5.353c.06.118.06.177.06.294v6.647c0 .06 0 .177-.06.236l-3.882 5.353c-.059.117-.118.176-.235.176l-6.353 2.059s-.06.059-.118.059zm2.882 7.706h-.117c-.118-.06-.294-.177-.294-.353l-1.824-6.706 6.059-2c.118 0 .235-.059.353-.118l1.882 7.118c.06.176 0 .353-.117.412-.118.117-.353.117-.471.058l-3.235-1.588-1.942 3c0 .118-.176.177-.294.177zm-5.647 0c-.176 0-.294-.06-.411-.236l-1.942-3-3.176 1.647c-.177.06-.353.06-.47-.058-.118-.118-.236-.294-.177-.471l1.882-7.059.353.177 3.177 1 2.882.94-1.765 6.707c-.058.176-.176.294-.353.294v.059zm0-14.236c-.117 0-.176 0-.235-.059-.176-.117-.235-.294-.176-.47l1-3-2.53-1.824c-.176-.058-.235-.294-.176-.47a.442.442 0 01.412-.294h3.117l.941-2.942a.442.442 0 01.412-.294c.235 0 .353.118.412.294L26 19.765h3.177c.176 0 .294.117.411.294 0 .176 0 .353-.176.47l-2.53 1.883 1 2.94c.06.177 0 .354-.176.471-.118.118-.294.118-.47 0L24.705 24l-2.53 1.823c-.117.06-.176.06-.294.06zM24.647 23c.118 0 .177 0 .235.059l1.706 1.235-.647-2c-.059-.176 0-.353.177-.47l1.706-1.236h-2.118a.442.442 0 01-.412-.294l-.647-2-.706 2c0 .177-.176.294-.412.294h-2.117l1.706 1.235c.176.118.235.295.176.471l-.647 2 1.706-1.235c.118-.059.176-.059.294-.059zm0 6.177c-4.412 0-8-3.53-8-7.942 0-4.412 3.647-8 8-8 4.412 0 8 3.53 8 7.942 0 4.411-3.588 8-8 8zm0-15.118c-3.941 0-7.118 3.235-7.118 7.118a7.105 7.105 0 007.118 7.117 7.105 7.105 0 007.118-7.117c0-3.883-3.177-7.118-7.118-7.118z" fill="#fff"/></g><defs><clipPath id="clip0_160_2071"><path fill="#fff" d="M0 0h50v50H0z"/></clipPath></defs></svg>