<svg width="50" height="50" fill="none" xmlns="http://www.w3.org/2000/svg"><g clip-path="url(#clip0_160_2061)"><path d="M49.5 25c0 13.531-10.969 24.5-24.5 24.5S.5 38.531.5 25 11.469.5 25 .5 49.5 11.469 49.5 25z" fill="#015CAC" fill-opacity=".22" stroke="#fff"/><path fill-rule="evenodd" clip-rule="evenodd" d="M37.176 40.118h-2.059v-7.412a.402.402 0 00-.411-.412H29c-.294 0-.47.177-.47.412v7.412H13.41c-.235 0-.411-.236-.411-.47v-9.942c0-.118.059-.294.176-.353l6.177-3.765c.058-.059.176-.059.294-.059s.176.118.294.177l2 3.412 5.765-3.53c.059-.059.176-.059.294-.059.117 0 .176.118.294.177l2.059 3.588h6.823c.235 0 .412.177.412.412v10c.059.176-.118.412-.412.412zm-2.882 0h-4.882v-6.942h4.882v6.942zm-15.53-5.765h-2.47c-.294 0-.47-.177-.47-.412v-2.53c0-.235.176-.47.47-.47h2.47c.295 0 .471.236.471.47v2.53c0 .235-.176.412-.47.412zm-2.058-.824h1.647v-1.706h-1.647v1.706zm6.235.824h-2.53c-.235 0-.47-.177-.47-.412v-2.53c0-.235.235-.47.47-.47h2.53c.235 0 .412.236.412.47v2.53a.402.402 0 01-.412.412zm-2.118-.824h1.647v-1.706h-1.647v1.706zm-2.058 4.883h-2.471a.464.464 0 01-.47-.47V35.47c0-.294.176-.471.47-.471h2.47c.295 0 .471.176.471.47v2.471c0 .235-.176.47-.47.47zm-2.06-.883h1.648v-1.647h-1.647v1.647zm6.236.883h-2.53a.506.506 0 01-.47-.47V35.47c0-.294.235-.471.47-.471h2.53c.235 0 .412.176.412.47v2.471c0 .235-.177.47-.412.47zm-2.118-.883h1.647v-1.647h-1.647v1.647zm-7.706-9.117L14.06 18c0-.235.176-.412.411-.412h2c.236 0 .412.177.412.412l.706 7.706-4.47 2.706z" fill="#fff"/><path fill-rule="evenodd" clip-rule="evenodd" d="M18.882 24.882L19.47 18c.06-.235.177-.412.412-.412h2.059c.176 0 .412.177.412.412l.823 9.412-.941.588-1.588-2.706c-.177-.294-.47-.47-.824-.588a1.36 1.36 0 00-.94.176zm2.058-7.941c-.058 0-.058 0-.117-.059-.176-.059-.353-.235-.294-.47 0-.06.177-1.177.706-2.353.412-.824 1.823-2 1.941-2.059.647-.294 1.353-.177 2.118-.118 1.412.177 2.764.295 3.941-1.647.118-.235.353-.294.53-.176.235.059.293.294.235.47-.06.236-1.706 5.118-4.942 4.236-2.47-.765-3.646 1.764-3.705 1.882-.118.177-.236.294-.412.294z" fill="#fff"/><path fill-rule="evenodd" clip-rule="evenodd" d="M15.47 17.177c-.058 0-.058 0-.117-.06-.236-.058-.353-.235-.294-.47 0-.118.53-3.059 2.235-4.235.647-.412 1.353-.53 2.235-.294 2.765.705 4.177-1.589 4.236-1.706.117-.177.352-.294.529-.177.177.118.294.294.235.53-.058.176-1.706 5.117-4.94 4.176-2.53-.706-3.707 1.824-3.707 1.941-.117.177-.235.294-.412.294z" fill="#fff"/></g><defs><clipPath id="clip0_160_2061"><path fill="#fff" d="M0 0h50v50H0z"/></clipPath></defs></svg>