<svg width="50" height="50" fill="none" xmlns="http://www.w3.org/2000/svg"><g clip-path="url(#clip0_160_2088)"><path d="M49.5 25c0 13.531-10.969 24.5-24.5 24.5S.5 38.531.5 25 11.469.5 25 .5 49.5 11.469 49.5 25z" fill="#015CAC" fill-opacity=".22" stroke="#fff"/><path fill-rule="evenodd" clip-rule="evenodd" d="M15.504 31.65h-1.129c-.398 0-.797-.201-1.063-.47-.265-.268-.332-.604-.332-.94v-.738c1.528 0 2.325-.269 2.657-.134-.133.47-.2.94-.2 1.41 0 .268 0 .604.067.872zM36.554 34c-1.792 0-3.253-1.477-3.253-3.223 0-1.745 1.46-3.222 3.254-3.222 1.726 0 3.187 1.477 3.187 3.222 0 1.746-1.46 3.223-3.187 3.223zM10.392 21.244h2.656v1.41h-1.195a.456.456 0 00-.465.47c0 .268.199.47.465.47h1.195v1.41H8.465c-.266 0-.465.268-.465.537 0 .268.2.47.465.47h4.582l-.067 2.484h3.122c.73-1.142 1.992-1.813 3.386-1.813 1.395 0 2.657.671 3.387 1.813h10.293c.73-1.142 1.992-1.813 3.387-1.813 2.191 0 4.05 1.813 4.05 4.095 0 .269 0 .605-.066.873h.598a.884.884 0 00.863-.873v-2.55h-1.262a.456.456 0 01-.465-.47c0-.27.2-.538.465-.538H42v-.537c0-.067 0-.134-.066-.134l-.067-.202h-4.383c-1.793 0-3.32-1.678-3.32-3.692V19.7h-1.129v-3.29c0-.806-.597-1.41-1.394-1.41H13.645c-.266 0-.465.201-.532.47v2.148h9.629c.266 0 .465.202.465.47 0 .336-.266.537-.465.537h-9.629v1.612h-2.722c-.266 0-.532.268-.532.537 0 .268.266.47.532.47zm2.722 0v-1.007h6.11c.265 0 .53.268.53.537 0 .268-.265.47-.53.47h-6.11zm0 2.35v-.94h7.57c.266 0 .532.201.532.47 0 .268-.266.47-.531.47h-7.57zm0 2.417v-1.008h4.25c.266 0 .465.27.465.538s-.2.47-.465.47h-4.25zM19.488 34c-1.793 0-3.187-1.477-3.187-3.223 0-1.745 1.46-3.222 3.187-3.222 1.793 0 3.188 1.477 3.188 3.222 0 1.746-1.395 3.223-3.188 3.223zm13.016-2.35h-9.031c.066-.268.133-.604.133-.873 0-.47-.133-.872-.266-1.275h9.297a3.94 3.94 0 00-.2 1.275c0 .336.067.605.067.873zM35.16 19.7h3.254c.73 0 .93.604 1.129.94l1.926 4.7H37.55c-1.328 0-2.39-1.21-2.39-2.686V19.7z" fill="#fff"/></g><defs><clipPath id="clip0_160_2088"><path fill="#fff" d="M0 0h50v50H0z"/></clipPath></defs></svg>