<svg width="50" height="50" fill="none" xmlns="http://www.w3.org/2000/svg"><g clip-path="url(#clip0_160_2075)"><path d="M49.5 25c0 13.531-10.969 24.5-24.5 24.5S.5 38.531.5 25 11.469.5 25 .5 49.5 11.469 49.5 25z" fill="#015CAC" fill-opacity=".22" stroke="#fff"/><path fill-rule="evenodd" clip-rule="evenodd" d="M27.616 32.1a4.322 4.322 0 015.726-1.601V14.34c0-.74-.555-1.341-1.295-1.341H17.34c-.74 0-1.341.601-1.341 1.341v20.625c0 .74.601 1.341 1.341 1.341h10.14a4.305 4.305 0 01-.48-1.982c0-.54.099-1.055.279-1.531h-4.25a.316.316 0 01-.323-.324c0-.231.138-.37.323-.37h4.587zm-7.778.693h-1.757c-.231 0-.37-.139-.37-.324 0-.231.139-.37.37-.37h1.757c.185 0 .324.139.324.37 0 .185-.185.324-.324.324zm11.515-3.885H18.035c-.185 0-.324-.185-.324-.37s.139-.323.324-.323h13.318c.185 0 .37.138.37.323s-.185.37-.37.37zm0-3.93H18.035a.316.316 0 01-.324-.324c0-.185.139-.324.324-.324h13.318c.185 0 .37.139.37.324s-.185.323-.37.323zm0-3.885H18.035a.316.316 0 01-.324-.324c0-.231.139-.37.324-.37h13.318c.185 0 .37.139.37.37 0 .185-.185.324-.37.324zm-4.07-3.885h-5.179c-.23 0-.37-.138-.37-.37 0-.185.14-.323.37-.323h5.18c.231 0 .37.138.37.323 0 .232-.139.37-.37.37z" fill="#fff"/><path fill-rule="evenodd" clip-rule="evenodd" d="M31.324 38.648a4.324 4.324 0 100-8.648 4.324 4.324 0 000 8.648zm3.092-5.192a.618.618 0 00-.832-.912l-2.782 2.539-1.306-1.759a.618.618 0 10-.992.737l1.714 2.307a.618.618 0 00.913.088l3.285-3z" fill="#fff"/></g><defs><clipPath id="clip0_160_2075"><path fill="#fff" d="M0 0h50v50H0z"/></clipPath></defs></svg>