<svg width="35" height="35" fill="none" xmlns="http://www.w3.org/2000/svg"><g clip-path="url(#clip0_350_8134)"><mask id="mask0_350_8134" style="mask-type:luminance" maskUnits="userSpaceOnUse" x="0" y="0" width="35" height="35"><path d="M34.32.168h-34v34h34v-34z" fill="#fff"/></mask><g mask="url(#mask0_350_8134)"><mask id="mask1_350_8134" style="mask-type:luminance" maskUnits="userSpaceOnUse" x="0" y="0" width="35" height="35"><path d="M.32.168h34v34h-34v-34z" fill="#fff"/></mask><g mask="url(#mask1_350_8134)" stroke="#1A1A1A" stroke-width="2" stroke-miterlimit="10"><path d="M4.305 17.168c0-7.188 5.827-13.016 13.015-13.016 7.189 0 13.016 5.828 13.016 13.016S24.509 30.184 17.32 30.184c-7.188 0-13.015-5.828-13.015-13.016zm22.047 0h7.968m-34 0h7.97m9.034-9.031V.168m0 34v-7.902"/><path d="M14.66 15.375a2.656 2.656 0 115.313 0 2.656 2.656 0 01-5.313 0z" stroke-linecap="round" stroke-linejoin="round"/><path d="M12.805 22.547a4.516 4.516 0 119.03 0" stroke-linejoin="round"/></g></g></g><defs><clipPath id="clip0_350_8134"><path fill="#fff" transform="translate(.32 .168)" d="M0 0h34v34H0z"/></clipPath></defs></svg>