<svg width="35" height="35" fill="none" xmlns="http://www.w3.org/2000/svg"><path d="M29.42 32.043h-8.566a2.627 2.627 0 01-2.623-2.623V18.729a2.627 2.627 0 012.623-2.623h8.566a2.627 2.627 0 012.623 2.623v10.69a2.627 2.627 0 01-2.623 2.624zM20.854 18.23a.498.498 0 00-.498.499v10.69c0 .276.223.499.498.499h8.566a.498.498 0 00.498-.498V18.729a.498.498 0 00-.498-.498h-8.566zm8.566-4.25h-8.566a2.627 2.627 0 01-2.623-2.623v-6.44a2.627 2.627 0 012.623-2.624h8.566a2.627 2.627 0 012.623 2.623v6.441a2.627 2.627 0 01-2.623 2.623zm-8.566-9.562a.498.498 0 00-.498.498v6.441c0 .275.223.498.498.498h8.566a.498.498 0 00.498-.498v-6.44a.498.498 0 00-.498-.499h-8.566zM13.486 18.23H4.92a2.627 2.627 0 01-2.623-2.623V4.917A2.627 2.627 0 014.92 2.292h8.566a2.627 2.627 0 012.623 2.623v10.691a2.627 2.627 0 01-2.623 2.623zM4.92 4.418a.498.498 0 00-.498.498v10.691c0 .275.223.498.498.498h8.566a.498.498 0 00.498-.498V4.917a.498.498 0 00-.498-.499H4.92zm8.566 27.625H4.92a2.627 2.627 0 01-2.623-2.623v-6.441a2.627 2.627 0 012.623-2.623h8.566a2.627 2.627 0 012.623 2.623v6.44a2.627 2.627 0 01-2.623 2.624zM4.92 22.48a.498.498 0 00-.498.499v6.44c0 .276.223.499.498.499h8.566a.498.498 0 00.498-.498v-6.441a.498.498 0 00-.498-.498H4.92z" fill="#1A1A1A"/></svg>