<svg width="35" height="35" fill="none" xmlns="http://www.w3.org/2000/svg"><g clip-path="url(#clip0_350_8032)"><mask id="mask0_350_8032" style="mask-type:luminance" maskUnits="userSpaceOnUse" x="0" y="0" width="35" height="35"><path d="M34.195.167h-34v34h34v-34z" fill="#fff"/><path d="M10.555 18.698V10.13a1.328 1.328 0 10-2.657 0v7.586l2.657.983z" fill="#fff"/></mask><g mask="url(#mask0_350_8032)"><mask id="mask1_350_8032" style="mask-type:luminance" maskUnits="userSpaceOnUse" x="0" y="0" width="35" height="35"><path d="M.188.167h34v34h-34v-34z" fill="#fff"/></mask><g mask="url(#mask1_350_8032)"><path d="M32.86 7.379l-15.672 5.804L1.515 7.38" stroke="#1A1A1A" stroke-width="2" stroke-miterlimit="10" stroke-linecap="round"/><path d="M24.691 4.39L9.02 10.195" stroke="#1A1A1A" stroke-width="2" stroke-miterlimit="10"/><path d="M1.516 7.379v19.55l15.671 5.804L32.86 26.93V7.379L17.187 1.574 1.517 7.38zm15.672 5.803v19.55" stroke="#1A1A1A" stroke-width="2" stroke-miterlimit="10" stroke-linecap="round"/><path d="M10.55 18.698V10.13a1.328 1.328 0 10-2.655 0v7.586l2.656.983z" fill="#1A1A1A"/></g></g></g><defs><clipPath id="clip0_350_8032"><path fill="#fff" transform="translate(.203 .168)" d="M0 0h34v34H0z"/></clipPath></defs></svg>