<svg width="35" height="35" fill="none" xmlns="http://www.w3.org/2000/svg"><g clip-path="url(#clip0_350_8113)"><mask id="mask0_350_8113" style="mask-type:luminance" maskUnits="userSpaceOnUse" x="0" y="0" width="35" height="35"><path d="M34.297.167h-34v34h34v-34z" fill="#fff"/></mask><g mask="url(#mask0_350_8113)"><mask id="mask1_350_8113" style="mask-type:luminance" maskUnits="userSpaceOnUse" x="0" y="0" width="35" height="35"><path d="M.3.167h34v34H.3v-34z" fill="#fff"/></mask><g mask="url(#mask1_350_8113)" stroke="#1A1A1A" stroke-width="2" stroke-miterlimit="10"><path d="M19.293 4.151H7.008a2.656 2.656 0 00-2.656 2.657v23.375a2.656 2.656 0 002.656 2.656h23.176V6.808h-5.247"/><path d="M4.352 30.183a2.656 2.656 0 012.656-2.657h22.91m-8.368 0a3.32 3.32 0 000-6.64h-1.99V1.496h1.992a3.32 3.32 0 013.32 3.32v19.656"/></g></g></g><defs><clipPath id="clip0_350_8113"><path fill="#fff" transform="translate(.297 .168)" d="M0 0h34v34H0z"/></clipPath></defs></svg>