<svg width="35" height="35" fill="none" xmlns="http://www.w3.org/2000/svg"><g clip-path="url(#clip0_350_8080)"><mask id="mask0_350_8080" style="mask-type:luminance" maskUnits="userSpaceOnUse" x="0" y="0" width="35" height="35"><path d="M34.27.167h-34v34h34v-34z" fill="#fff"/><path d="M16.518 31.512H8.504a1.33 1.33 0 01-1.328-1.328V6.809A1.33 1.33 0 018.504 5.48h7.504V4.152a1.33 1.33 0 011.328-1.328 1.33 1.33 0 011.328 1.328V5.48h7.438a1.33 1.33 0 011.328 1.33v14.754l2.656-2.957V6.809a3.989 3.989 0 00-3.984-3.985h-5.01A3.991 3.991 0 0017.337.168a3.991 3.991 0 00-3.757 2.656H8.504A3.989 3.989 0 004.52 6.81v23.375a3.989 3.989 0 003.984 3.984h10.805l-2.79-2.656z" fill="#fff"/></mask><g mask="url(#mask0_350_8080)"><mask id="mask1_350_8080" style="mask-type:luminance" maskUnits="userSpaceOnUse" x="0" y="0" width="35" height="35"><path d="M.266.168h34v34h-34v-34z" fill="#fff"/></mask><g mask="url(#mask1_350_8080)"><path d="M16.514 31.512H8.5a1.33 1.33 0 01-1.328-1.328V6.809A1.33 1.33 0 018.5 5.48h7.504V4.152a1.33 1.33 0 011.328-1.328 1.33 1.33 0 011.328 1.328V5.48h7.438a1.33 1.33 0 011.328 1.329v14.754l2.656-2.957V6.809a3.989 3.989 0 00-3.984-3.985h-5.01A3.991 3.991 0 0017.333.168a3.991 3.991 0 00-3.757 2.656H8.5A3.989 3.989 0 004.516 6.81v23.375A3.989 3.989 0 008.5 34.168h10.805l-2.79-2.656z" fill="#1A1A1A"/><path d="M22.645 4.152v5.246H12.02V4.152m3.12 10.558h9.63m-14.942 0h2.656m2.726 5.313h9.563m-14.945 0h2.723m-2.723 5.313h2.656m4.45 1.074l6.196 5.9 10.14-11.29" stroke="#1A1A1A" stroke-width="2" stroke-miterlimit="10"/></g></g></g><defs><clipPath id="clip0_350_8080"><path fill="#fff" transform="translate(.273 .168)" d="M0 0h34v34H0z"/></clipPath></defs></svg>