<svg width="35" height="35" fill="none" xmlns="http://www.w3.org/2000/svg"><g clip-path="url(#clip0_350_8059)"><path d="M15.895 1.496h1.328c8.655 0 15.672 7.017 15.672 15.672 0 8.655-7.017 15.672-15.672 15.672-8.656 0-15.672-7.017-15.672-15.672V15.84m1.701-5.896l-1.016 2.454m2.966-5.373L7.08 5.147m2.918-1.95l2.454-1.016m4.77 8.612V6.809m0 3.984a6.375 6.375 0 00-6.374 6.375m6.375-6.375a6.375 6.375 0 016.375 6.375M12.715 12.66L9.898 9.843m.95 7.325H6.863m3.985 0a6.375 6.375 0 006.375 6.375m-4.508-1.867l-2.817 2.817m7.325-.95v3.984m0-3.984a6.375 6.375 0 006.375-6.375m-1.868 4.508l2.818 2.817m-.95-7.325h3.984M21.73 12.66l2.818-2.817m-8.653 7.325h2.656" stroke="#1A1A1A" stroke-width="2" stroke-miterlimit="10"/></g><defs><clipPath id="clip0_350_8059"><path fill="#fff" transform="translate(.227 .168)" d="M0 0h34v34H0z"/></clipPath></defs></svg>